<svg xmlns="http://www.w3.org/2000/svg" version="1.1" xmlns:xlink="http://www.w3.org/1999/xlink" xmlns:svgjs="http://svgjs.dev/svgjs" width="1000" height="750" viewBox="0 0 1000 750"><rect width="1000" height="750" fill="#000000"></rect><g transform="matrix(0.834,0,0,0.834,82.49454545454546,115.4193570850203)"><svg viewBox="0 0 396 247" data-background-color="#096a2e" preserveAspectRatio="xMidYMid meet" height="623" width="1000" xmlns="http://www.w3.org/2000/svg" xmlns:xlink="http://www.w3.org/1999/xlink"><g id="tight-bounds" transform="matrix(1,0,0,1,0.2400000000000091,-0.09999999999999432)"><svg viewBox="0 0 395.52 247.2" height="247.2" width="395.52"><g><svg></svg></g><g><svg viewBox="0 0 395.52 247.2" height="247.2" width="395.52"><g transform="matrix(1,0,0,1,39.55199999999999,103.46443636363635)"><svg viewBox="0 0 316.416 40.27112727272728" height="40.27112727272728" width="316.416"><g><svg viewBox="0 0 316.416 40.27112727272728" height="40.27112727272728" width="316.416"><g><svg viewBox="0 0 316.416 40.27112727272728" height="40.27112727272728" width="316.416"><g><svg viewBox="0 0 316.416 40.27112727272728" height="40.27112727272728" width="316.416"><g><svg viewBox="0 0 316.416 40.27112727272728" height="40.27112727272728" width="316.416"><g><svg viewBox="0 0 316.416 40.27112727272728" height="40.27112727272728" width="316.416"><g transform="matrix(1,0,0,1,0,0)"><svg width="316.416" viewBox="0 -50 343.739990234375 43.75" height="40.27112727272728" data-palette-color="#ffffff"><path d="M12.5-6.25L0-6.25 0-50 12.5-50 12.5-31.25 31.25-31.25 31.25-50 43.75-50 43.75-6.25 31.25-6.25 31.25-25 12.5-25 12.5-6.25ZM87.5-6.25L56.25-6.25 56.25-12.5 50-12.5 50-31.25 56.25-31.25 56.25-37.5 87.5-37.5 87.5-31.25 93.75-31.25 93.75-18.75 62.5-18.75 62.5-12.5 87.5-12.5 87.5-6.25ZM62.5-31.25L62.5-25 81.25-25 81.25-31.25 62.5-31.25ZM112.5-6.25L100-6.25 100-12.5 106.25-12.5 106.25-18.75 112.5-18.75 112.5-25 106.25-25 106.25-31.25 100-31.25 100-37.5 112.5-37.5 112.5-31.25 118.75-31.25 118.75-25 125-25 125-31.25 131.25-31.25 131.25-37.5 143.75-37.5 143.75-31.25 137.5-31.25 137.5-25 131.25-25 131.25-18.75 137.5-18.75 137.5-12.5 143.75-12.5 143.75-6.25 131.25-6.25 131.25-12.5 125-12.5 125-18.75 118.75-18.75 118.75-12.5 112.5-12.5 112.5-6.25ZM193.74-6.25L156.24-6.25 156.24-12.5 149.99-12.5 149.99-18.75 156.24-18.75 156.24-25 181.24-25 181.24-31.25 156.24-31.25 156.24-37.5 187.49-37.5 187.49-31.25 193.74-31.25 193.74-6.25ZM162.49-18.75L162.49-12.5 181.24-12.5 181.24-18.75 162.49-18.75ZM237.49-6.25L199.99-6.25 199.99-12.5 231.24-12.5 231.24-18.75 206.24-18.75 206.24-25 199.99-25 199.99-31.25 206.24-31.25 206.24-37.5 237.49-37.5 237.49-31.25 212.49-31.25 212.49-25 237.49-25 237.49-18.75 243.74-18.75 243.74-12.5 237.49-12.5 237.49-6.25ZM287.49-6.25L256.24-6.25 256.24-12.5 249.99-12.5 249.99-31.25 256.24-31.25 256.24-37.5 287.49-37.5 287.49-31.25 293.74-31.25 293.74-12.5 287.49-12.5 287.49-6.25ZM262.49-31.25L262.49-12.5 281.24-12.5 281.24-31.25 262.49-31.25ZM312.49-6.25L299.99-6.25 299.99-37.5 337.49-37.5 337.49-31.25 343.74-31.25 343.74-6.25 331.24-6.25 331.24-31.25 312.49-31.25 312.49-6.25Z" opacity="1" transform="matrix(1,0,0,1,0,0)" fill="#ffffff" class="undefined-text-0" data-fill-palette-color="primary" id="text-0"></path></svg></g></svg></g></svg></g></svg></g></svg></g></svg></g></svg></g><g mask="url(#a169b56c-dd88-4a41-b202-f2d38ddce28d)"><g transform="matrix(2.466800956299378, 0, 0, 2.466800956299378, 113.51874357833668, 1)"><svg xmlns:x="http://ns.adobe.com/Extensibility/1.0/" xmlns:i="http://ns.adobe.com/AdobeIllustrator/10.0/" xmlns:graph="http://ns.adobe.com/Graphs/1.0/" xmlns="http://www.w3.org/2000/svg" xmlns:xlink="http://www.w3.org/1999/xlink" version="1.1" x="0" y="0" viewBox="15.90000057220459 0.2999999523162842 68.30000305175781 99.39999389648438" enable-background="new 0 0 100 100" xml:space="preserve" height="99.39999389648438" width="68.30000305175781" class="icon-none" data-fill-palette-color="accent" id="none"><path d="M27.2 99.7h45.7c6.2 0 11.3-5 11.3-11.3V21c0-6.2-5-11.3-11.3-11.3H27.2c-6.2 0-11.3 5-11.3 11.3v67.4C15.9 94.6 20.9 99.7 27.2 99.7zM20.9 21c0-3.4 2.8-6.3 6.3-6.3h45.7c3.4 0 6.3 2.8 6.3 6.3v67.4c0 3.4-2.8 6.3-6.3 6.3H27.2c-3.4 0-6.3-2.8-6.3-6.3V21zM28.2 63.5h43.6c1.4 0 2.5-1.1 2.5-2.5V24.1c0-1.4-1.1-2.5-2.5-2.5H28.2c-1.4 0-2.5 1.1-2.5 2.5V61C25.7 62.3 26.8 63.5 28.2 63.5zM30.7 26.6h38.6v31.9H30.7V26.6zM57.8 77.5c1.2 1.2 1.2 3.1 0 4.3-1.2 1.2-3.1 1.2-4.3 0s-1.2-3.1 0-4.3C54.7 76.3 56.6 76.3 57.8 77.5zM70.2 77.5c1.2 1.2 1.2 3.1 0 4.3-1.2 1.2-3.1 1.2-4.3 0-1.2-1.2-1.2-3.1 0-4.3C67.1 76.3 69 76.3 70.2 77.5zM45.8 79.6c0 1.4-1.1 2.5-2.5 2.5h-3.8v3.8c0 1.4-1.1 2.5-2.5 2.5s-2.5-1.1-2.5-2.5v-3.8h-3.8c-1.4 0-2.5-1.1-2.5-2.5s1.1-2.5 2.5-2.5h3.8v-3.8c0-1.4 1.1-2.5 2.5-2.5s2.5 1.1 2.5 2.5v3.8h3.8C44.7 77.1 45.8 78.2 45.8 79.6zM64 83.7c1.2 1.2 1.2 3.1 0 4.3s-3.1 1.2-4.3 0c-1.2-1.2-1.2-3.1 0-4.3C60.9 82.5 62.8 82.5 64 83.7zM64 71.3c1.2 1.2 1.2 3.1 0 4.3-1.2 1.2-3.1 1.2-4.3 0-1.2-1.2-1.2-3.1 0-4.3C60.9 70.1 62.8 70.1 64 71.3zM28.3 2.8c0-1.4 1.1-2.5 2.5-2.5h38.4c1.4 0 2.5 1.1 2.5 2.5s-1.1 2.5-2.5 2.5H30.8C29.4 5.3 28.3 4.2 28.3 2.8z" fill="#ffffff" data-fill-palette-color="accent"></path></svg></g></g></svg></g><defs><mask id="a169b56c-dd88-4a41-b202-f2d38ddce28d"><rect width="640" height="400" fill="white"></rect><rect width="348.05760000000004" height="59.285220556800006" fill="black" x="145.97119999999998" y="170.3573897216" id="transform-me" transform="matrix(1,0,0,1,-122.24000000000001,-76.4)"></rect></mask></defs></svg><rect width="395.52" height="247.2" fill="none" stroke="none" visibility="hidden"></rect></g></svg></g></svg>